<svg xmlns="http://www.w3.org/2000/svg" width="270" height="96"><defs><linearGradient id="a" x1="50%" x2="50%" y1="0%" y2="100%"><stop offset="0%" stop-color="#FF6544"/><stop offset="100%" stop-color="#FF4449"/></linearGradient><linearGradient id="b" x1="100%" x2="0%" y1="50%" y2="50%"><stop offset="46.952%" stop-color="#FF5F45"/><stop offset="100%" stop-color="#293052"/></linearGradient><linearGradient id="c" x1="82.789%" x2="0%" y1="50.017%" y2="50%"><stop offset="0%" stop-color="#FF5F45"/><stop offset="100%" stop-color="#293052"/></linearGradient></defs><g fill="none" fill-rule="evenodd"><g fill="#293052"><path d="M33.55 61.2s.585 4.378 4.272 6.408l-.982-1.83s1.877-4.927-3.29-4.578"/><path d="M49.85 30.742c3.962 1.413 5.237 5.639 5.237 5.639-5.042 1.15-3.98-4-3.98-4l-1.257-1.639zm26.525 45.689c-.516.506-1.025.998-1.547 1.473-11.383 9.281-20.148 4.664-20.25 4.664-5.943-1.188-8.891-1.205-10.56-2.32-.419-.282-1.763-1.004-2.072-.829-1.213.722-2.882 1.094-4.598-.273a6.29 6.29 0 01-.427-.39c-1.893-1.886-1.25-3.83-.623-4.508.437-.442-.331-1.687-.331-1.687s-2.231-3.315-3.754-5.31c-1.68-2.19-1.909-6.537-1.929-6.596l-.022-.06c-1.696-2.016-1.872-2.636-2.458-3.618-.342-.582-.868-1.125-1.313-1.593-.307-.307-.59-.598-.791-.87-.044-.057-.056-.142-.039-.276.157-.941 2.178-3.016 2.614-3.306.537-.346 2.841-1.747 2.841-1.747s1.296-2.04 3.501-2.04c1.99.013 3.205-.11 6.636 1.01l1.427.453c2.391.767 4.5 1.671 6.176 2.395 1.42.613 2.56 1.108 3.433 1.338 2.959.778 8.18-1.619 9.28-2.629 1.807-1.645 2.587-2.747 2.597-3.65.015-.506-.21-.95-.721-1.486-.267-.245-.61-.703-1.04-1.138-.068-.068-.141-.149-.228-.21-5.009-5.323-4.143-8.662-4.137-8.715.215-2.395-1.157-3.932-2.632-5.526l-.241-.298c-.077-.07-.171-.194-.171-.194 2.132.349 3.585 1.208 7.753 1.673 2.366.255 1.62.232 3.51.187 2.605-.084 4.669-.312 4.81-.904-.253-.215-1.405.062-6.937-2.051-2.561-.983-2.967-1.127-4.594-1.668-2.093-.706-4.362-1.683-4.362-1.683 9.024 2.368 11.976 3.296 16.104 3.353 1.598.03 2.547-.163 3.106-.277.586-.106 2.408-.52 2.615-1.15.063-.11-1.748.298-5.097-.808-10.533-3.483-11.43-5.224-17.268-7.497-2.038-.791-2.7-1.225-8.851-2.815-2.818-.724-7.08-.308-7.66.056-7.985-1.878-9.8-1.674-12.143-1.168C41.605 3.72 62.705 5.525 76.375 19.199a41.316 41.316 0 014.93 5.974l.193.291c4.385 6.568 6.727 14.277 6.727 22.348 0 10.81-4.21 20.965-11.85 28.619zm4.898-62.144c-18.48-18.493-48.526-18.493-67.001-.004-18.473 18.485-18.473 48.567 0 67.056 18.475 18.489 48.532 18.482 67-.004 18.498-18.485 18.498-48.567 0-67.048z"/></g><g fill-rule="nonzero"><path fill="url(#a)" d="M21.983 0v.104L58.506 48 0 95.896V96h59.078c17.24.002 32.201-11.993 36.078-28.928l4.889-21.36c2.537-11.081-.077-22.724-7.1-31.624C85.922 5.188 75.256.001 63.975 0H21.982z" transform="translate(168)"/><path fill="#B51A31" d="M226.482 48.096L200.793 96H168z"/></g><path fill="url(#b)" fill-rule="nonzero" d="M45-11.5l24 12-24 12v-10H5a2 2 0 01-.15-3.995L5-1.5h40v-10z" transform="translate(112 47.5)"/><path stroke="url(#c)" stroke-linecap="round" stroke-width="8" d="M0 .5h55" transform="translate(112 47.5)"/></g></svg>