<svg xmlns="http://www.w3.org/2000/svg" width="250" height="156" viewBox="0 0 250 156">
    <g fill="none" fill-rule="evenodd">
        <g>
            <g>
                <g transform="translate(-382 -437) translate(340 194) translate(42 243)">
                    <rect width="250" height="156" fill="#FFF" rx="16"/>
                    <rect width="248" height="154" x="1" y="1" fill="#F2F2F2" fill-opacity=".4" stroke="#DEDEDE" stroke-width="2" rx="16"/>
                    <path fill="#2A3052" d="M40 41H24c-4.411 0-8 3.407-8 7.595v13.81C16 66.593 19.589 70 24 70h16c4.411 0 8-3.407 8-7.595v-13.81C48 44.407 44.411 41 40 41zm3.636 16.571h-4.363V54.12c0-.38.326-.69.727-.69h3.636v4.142zm0-8.976v.69H40c-2.807 0-5.09 2.17-5.09 4.834v11.738h-5.82V45.143H40c2.005 0 3.636 1.548 3.636 3.452zM20.364 53.43h4.363v4.142h-4.363V53.43zM24 45.143h.727v4.143h-4.363v-.69c0-1.905 1.63-3.453 3.636-3.453zm-3.636 17.262v-.69h4.363v4.142H24c-2.005 0-3.636-1.549-3.636-3.452zM40 65.857h-.727v-4.143h4.363v.69c0 1.904-1.63 3.453-3.636 3.453z"/>
                    <g transform="translate(202 43)">
                        <path fill="#2A3052" d="M6.4 35.2h19.2c3.535 0 6.4 2.865 6.4 6.4V48H0v-6.4c0-3.535 2.865-6.4 6.4-6.4z"/>
                        <path fill="#FFF" d="M8.8 35.2L10.4 41.6 14.4 38.4 13.6 35.2zM23.2 35.2L21.6 41.6 17.6 38.4 18.4 35.2z"/>
                        <path fill="#DEDEDE" fill-rule="nonzero" d="M20.8 35.2l-4.234 4.234c-.313.313-.82.313-1.132 0L11.2 35.2l.8-9.6h8l.8 9.6zM4 14.4h1.6V20H4c-.884 0-1.6-.716-1.6-1.6V16c0-.884.716-1.6 1.6-1.6z"/>
                        <path fill="#DEDEDE" fill-rule="nonzero" d="M28 14.4h1.6V20H28c-.884 0-1.6-.716-1.6-1.6V16c0-.884.716-1.6 1.6-1.6z" transform="rotate(-180 28 17.2)"/>
                        <rect width="20.8" height="30.4" x="5.6" y="1.6" fill="#DEDEDE" fill-rule="nonzero" rx="10.4"/>
                        <path fill="#2A3052" d="M24.4 4c2.933 3.2 3.6 7.2 2 12v2c0 .22-.18.4-.4.4-.22 0-.4-.18-.4-.4v-2.864c-1.174-1.237-1.702-1.74-3.2-4.736-2.777 1.6-5.844 2.4-9.2 2.4-1.067 0-2.8-.267-5.2-.8-.601 1.443-1.135 2.37-1.6 2.783V18c0 .22-.18.4-.4.4-.22 0-.4-.18-.4-.4v-3.05c-.223-.138-.423-.455-.6-.95-1-2.8-.6-8.8 3-11.6C11.6-.4 20-.8 24.4 4z"/>
                    </g>
                    <path fill="#2A3052" fill-rule="nonzero" d="M18.748 30v-3.432h3.18V24.96h-3.18v-1.716h3.732v-1.62h-5.556V30h1.824zm10.896 0v-1.62h-3.876v-1.812h3.324V24.96h-3.324v-1.716h3.876v-1.62h-5.7V30h5.7zm4.74 0c.552 0 1.056-.088 1.512-.264.456-.176.844-.438 1.164-.786.32-.348.568-.784.744-1.308.176-.524.264-1.134.264-1.83 0-.696-.088-1.306-.264-1.83-.176-.524-.424-.96-.744-1.308-.32-.348-.708-.61-1.164-.786-.456-.176-.96-.264-1.512-.264h-3.156V30h3.156zm0-1.62h-1.332v-5.136h1.332c.544 0 .972.152 1.284.456.312.304.468.792.468 1.464v1.296c0 .672-.156 1.16-.468 1.464-.312.304-.74.456-1.284.456zM45.292 30v-1.62h-3.876v-1.812h3.324V24.96h-3.324v-1.716h3.876v-1.62h-5.7V30h5.7zm3.408 0v-3.072h1.308L51.472 30H53.5l-1.644-3.288c.512-.192.894-.5 1.146-.924.252-.424.378-.92.378-1.488 0-.4-.06-.764-.18-1.092-.12-.328-.29-.61-.51-.846-.22-.236-.486-.418-.798-.546-.312-.128-.66-.192-1.044-.192h-3.972V30H48.7zm1.92-4.608H48.7v-2.184h1.92c.272 0 .486.07.642.21.156.14.234.346.234.618v.528c0 .272-.078.478-.234.618-.156.14-.37.21-.642.21zM56.128 30l.6-1.992h2.796l.6 1.992h1.896l-2.724-8.376H57.04L54.28 30h1.848zm2.952-3.54h-1.92l.924-3.18h.06l.936 3.18zM68.2 30v-1.62h-3.192v-6.756h-1.824V30H68.2zm6 0v-3.072h1.308L76.972 30H79l-1.644-3.288c.512-.192.894-.5 1.146-.924.252-.424.378-.92.378-1.488 0-.4-.06-.764-.18-1.092-.12-.328-.29-.61-.51-.846-.22-.236-.486-.418-.798-.546-.312-.128-.66-.192-1.044-.192h-3.972V30H74.2zm1.92-4.608H74.2v-2.184h1.92c.272 0 .486.07.642.21.156.14.234.346.234.618v.528c0 .272-.078.478-.234.618-.156.14-.37.21-.642.21zM86.164 30v-1.62h-3.876v-1.812h3.324V24.96h-3.324v-1.716h3.876v-1.62h-5.7V30h5.7zm3.408 0v-3.024h2.136c.392 0 .744-.066 1.056-.198.312-.132.578-.314.798-.546.22-.232.39-.512.51-.84.12-.328.18-.692.18-1.092 0-.392-.06-.754-.18-1.086-.12-.332-.29-.614-.51-.846-.22-.232-.486-.414-.798-.546-.312-.132-.664-.198-1.056-.198h-3.96V30h1.824zm1.92-4.608h-1.92v-2.184h1.92c.272 0 .486.07.642.21.156.14.234.346.234.618v.528c0 .272-.078.478-.234.618-.156.14-.37.21-.642.21zm7.368 4.752c.6 0 1.108-.07 1.524-.21.416-.14.756-.356 1.02-.648.264-.292.454-.664.57-1.116.116-.452.174-.986.174-1.602v-4.944h-1.776v5.136c0 .592-.116 1.034-.348 1.326-.232.292-.62.438-1.164.438-.544 0-.932-.146-1.164-.438-.232-.292-.348-.734-.348-1.326v-5.136h-1.776v4.944c0 .616.058 1.15.174 1.602.116.452.306.824.57 1.116.264.292.604.508 1.02.648.416.14.924.21 1.524.21zm9.528-.144c.312 0 .6-.062.864-.186s.492-.294.684-.51c.192-.216.342-.47.45-.762.108-.292.162-.602.162-.93 0-.36-.062-.664-.186-.912s-.278-.45-.462-.606c-.184-.156-.386-.27-.606-.342-.22-.072-.43-.108-.63-.108v-.072c.216-.008.418-.046.606-.114s.352-.174.492-.318c.14-.144.252-.328.336-.552.084-.224.126-.496.126-.816 0-.648-.194-1.168-.582-1.56-.388-.392-.93-.588-1.626-.588h-4.068V30h4.44zm-.804-4.944h-1.812V23.16h1.812c.24 0 .428.068.564.204.136.136.204.324.204.564v.36c0 .24-.068.428-.204.564-.136.136-.324.204-.564.204zm.288 3.408h-2.1v-1.92h2.1c.24 0 .43.066.57.198.14.132.21.318.21.558v.408c0 .24-.07.426-.21.558-.14.132-.33.198-.57.198zM116.968 30v-1.62h-3.192v-6.756h-1.824V30h5.016zm5.004 0v-1.452h-1.08v-5.472h1.08v-1.452h-3.984v1.452h1.08v5.472h-1.08V30h3.984zm4.908.144c.776 0 1.418-.174 1.926-.522.508-.348.918-.842 1.23-1.482l-1.488-.864c-.128.344-.326.638-.594.882-.268.244-.626.366-1.074.366-.536 0-.966-.174-1.29-.522-.324-.348-.486-.854-.486-1.518V25.14c0-.664.162-1.17.486-1.518.324-.348.754-.522 1.29-.522.456 0 .802.106 1.038.318.236.212.41.494.522.846l1.572-.816c-.304-.68-.708-1.178-1.212-1.494-.504-.316-1.144-.474-1.92-.474-.568 0-1.08.096-1.536.288-.456.192-.844.474-1.164.846-.32.372-.568.832-.744 1.38-.176.548-.264 1.174-.264 1.878 0 .712.088 1.334.264 1.866.176.532.424.976.744 1.332.32.356.708.624 1.164.804.456.18.968.27 1.536.27zm10.62 0c.552 0 1.056-.092 1.512-.276.456-.184.844-.458 1.164-.822.32-.364.568-.816.744-1.356.176-.54.264-1.166.264-1.878s-.088-1.338-.264-1.878c-.176-.54-.424-.992-.744-1.356-.32-.364-.708-.638-1.164-.822-.456-.184-.96-.276-1.512-.276s-1.056.092-1.512.276c-.456.184-.844.458-1.164.822-.32.364-.568.816-.744 1.356-.176.54-.264 1.166-.264 1.878s.088 1.338.264 1.878c.176.54.424.992.744 1.356.32.364.708.638 1.164.822.456.184.96.276 1.512.276zm0-1.62c-.552 0-.982-.18-1.29-.54-.308-.36-.462-.876-.462-1.548v-1.248c0-.672.154-1.188.462-1.548.308-.36.738-.54 1.29-.54s.982.18 1.29.54c.308.36.462.876.462 1.548v1.248c0 .672-.154 1.188-.462 1.548-.308.36-.738.54-1.29.54zM144.532 30v-3.432h3.18V24.96h-3.18v-1.716h3.732v-1.62h-5.556V30h1.824zm9.744 0v-5.64h.036l.804 1.68 2.292 3.96h1.992v-8.376h-1.716v5.64h-.036l-.804-1.68-2.292-3.96h-1.992V30h1.716zm10.632 0v-1.452h-1.08v-5.472h1.08v-1.452h-3.984v1.452h1.08v5.472h-1.08V30h3.984zm4.632.144c.632 0 1.132-.14 1.5-.42.368-.28.584-.632.648-1.056h.06V30h1.536v-4.668h-3.3v1.524h1.56v.42c0 .208-.042.388-.126.54-.084.152-.202.282-.354.39-.152.108-.328.188-.528.24-.2.052-.412.078-.636.078-.568 0-1.02-.166-1.356-.498-.336-.332-.504-.846-.504-1.542V25.14c0-.704.168-1.22.504-1.548.336-.328.788-.492 1.356-.492.488 0 .868.114 1.14.342.272.228.472.506.6.834l1.488-.852c-.312-.648-.74-1.134-1.284-1.458-.544-.324-1.192-.486-1.944-.486-.568 0-1.084.096-1.548.288-.464.192-.862.472-1.194.84-.332.368-.59.824-.774 1.368-.184.544-.276 1.168-.276 1.872 0 .704.088 1.324.264 1.86.176.536.42.984.732 1.344.312.36.676.632 1.092.816.416.184.864.276 1.344.276zM180.76 30v-1.62h-3.876v-1.812h3.324V24.96h-3.324v-1.716h3.876v-1.62h-5.7V30h5.7zm3.408 0v-3.072h1.308L186.94 30h2.028l-1.644-3.288c.512-.192.894-.5 1.146-.924.252-.424.378-.92.378-1.488 0-.4-.06-.764-.18-1.092-.12-.328-.29-.61-.51-.846-.22-.236-.486-.418-.798-.546-.312-.128-.66-.192-1.044-.192h-3.972V30h1.824zm1.92-4.608h-1.92v-2.184h1.92c.272 0 .486.07.642.21.156.14.234.346.234.618v.528c0 .272-.078.478-.234.618-.156.14-.37.21-.642.21zM194.092 30v-1.452h-1.08v-5.472h1.08v-1.452h-3.984v1.452h1.08v5.472h-1.08V30h3.984zm2.688 0l.6-1.992h2.796l.6 1.992h1.896l-2.724-8.376h-2.256L194.932 30h1.848zm2.952-3.54h-1.92l.924-3.18h.06l.936 3.18z"/>
                    <path fill="#333" fill-rule="nonzero" d="M66.664 49c.357 0 .681-.059.972-.176.29-.117.539-.292.744-.524.205-.232.364-.523.476-.872.112-.35.168-.756.168-1.22 0-.464-.056-.87-.168-1.22-.112-.35-.27-.64-.476-.872-.205-.232-.453-.407-.744-.524-.29-.117-.615-.176-.972-.176h-1.976V49h1.976zm0-.8h-1.072v-3.984h1.072c.416 0 .752.13 1.008.392.256.261.384.645.384 1.152v.896c0 .507-.128.89-.384 1.152-.256.261-.592.392-1.008.392zm7.064.8v-.8h-2.672v-1.632h2.424v-.8h-2.424v-1.552h2.672v-.8h-3.576V49h3.576zm2.032 0v-4.272h.024l.616 1.184L78.224 49h1.008v-5.584h-.864v4.272h-.024l-.616-1.184-1.824-3.088h-1.008V49h.864zm5.712 0v-4.272h.024l.616 1.184L83.936 49h1.008v-5.584h-.864v4.272h-.024l-.616-1.184-1.824-3.088h-1.008V49h.864zm7.04 0v-.736h-.768v-4.112h.768v-.736H86.08v.736h.76v4.112h-.76V49h2.432zm2.808.096c.32 0 .605-.041.856-.124.25-.083.463-.2.636-.352.173-.152.305-.335.396-.548.09-.213.136-.45.136-.712 0-.448-.13-.8-.388-1.056-.259-.256-.668-.437-1.228-.544l-.496-.104c-.304-.059-.528-.145-.672-.26-.144-.115-.216-.29-.216-.524 0-.245.088-.432.264-.56.176-.128.424-.192.744-.192.31 0 .568.056.776.168.208.112.384.261.528.448l.632-.56c-.219-.277-.483-.49-.792-.636-.31-.147-.675-.22-1.096-.22-.299 0-.568.037-.808.112-.24.075-.444.18-.612.316-.168.136-.299.304-.392.504-.093.2-.14.423-.14.668 0 .448.136.8.408 1.056.272.256.68.435 1.224.536l.496.088c.325.064.552.16.68.288.128.128.192.301.192.52 0 .272-.09.488-.272.648-.181.16-.45.24-.808.24-.304 0-.575-.061-.812-.184-.237-.123-.455-.304-.652-.544l-.624.584c.235.288.516.517.844.688.328.17.727.256 1.196.256zM65.552 63v-4.272h.024l.616 1.184L68.016 63h1.008v-5.584h-.864v4.272h-.024l-.616-1.184-1.824-3.088h-1.008V63h.864zm7.04 0v-.736h-.768v-4.112h.768v-.736H70.16v.736h.76v4.112h-.76V63h2.432zm3.192.096c.427 0 .77-.09 1.028-.268.259-.179.417-.404.476-.676h.032V63h.792v-2.976h-2.024v.776h1.152v.432c0 .176-.036.33-.108.46-.072.13-.168.24-.288.328-.12.088-.26.155-.42.2-.16.045-.328.068-.504.068-.443 0-.799-.141-1.068-.424-.27-.283-.404-.683-.404-1.2v-.912c0-.517.135-.917.404-1.2.27-.283.625-.424 1.068-.424.341 0 .624.081.848.244.224.163.39.375.496.636l.736-.432c-.192-.395-.461-.703-.808-.924-.347-.221-.77-.332-1.272-.332-.368 0-.701.063-1 .188-.299.125-.555.31-.768.556-.213.245-.379.548-.496.908-.117.36-.176.772-.176 1.236 0 .47.057.884.172 1.244.115.36.275.661.48.904.205.243.45.427.732.552.283.125.59.188.92.188zm7.16-.096v-.8h-2.672v-1.632h2.424v-.8h-2.424v-1.552h2.672v-.8h-3.576V63h3.576zm2.072 0v-2.256h1.112L87.248 63h1.008l-1.208-2.352c.357-.107.628-.292.812-.556.184-.264.276-.596.276-.996 0-.517-.144-.927-.432-1.228-.288-.301-.683-.452-1.184-.452h-2.408V63h.904zm1.44-3.016h-1.44v-1.776h1.44c.23 0 .408.06.536.18.128.12.192.292.192.516v.384c0 .224-.064.396-.192.516s-.307.18-.536.18zM91.544 63v-.736h-.768v-4.112h.768v-.736h-2.432v.736h.76v4.112h-.76V63h2.432zm1.544 0l.488-1.512h2.088L96.168 63h.944l-1.904-5.584h-1.136L92.168 63h.92zm2.352-2.288h-1.648l.808-2.464h.04l.8 2.464zM98.84 63v-4.272h.024l.616 1.184L101.304 63h1.008v-5.584h-.864v4.272h-.024l-.616-1.184-1.824-3.088h-1.008V63h.864zM66.784 77.096c.485 0 .896-.115 1.232-.344.336-.23.597-.547.784-.952l-.728-.44c-.101.272-.257.495-.468.668-.21.173-.484.26-.82.26-.432 0-.77-.147-1.016-.44-.245-.293-.368-.699-.368-1.216v-.848c0-.517.123-.923.368-1.216.245-.293.584-.44 1.016-.44.325 0 .588.079.788.236.2.157.348.37.444.636l.76-.416c-.187-.416-.444-.73-.772-.944-.328-.213-.735-.32-1.22-.32-.363 0-.69.063-.98.188-.29.125-.537.31-.74.556-.203.245-.357.547-.464.904-.107.357-.16.77-.16 1.24 0 .939.208 1.655.624 2.148.416.493.99.74 1.72.74zM71.952 77v-.736h-.768v-4.112h.768v-.736H69.52v.736h.76v4.112h-.76V77h2.432zm3.208 0v-4.784h1.664v-.8h-4.232v.8h1.664V77h.904zm4.736 0v-.736h-.768v-4.112h.768v-.736h-2.432v.736h.76v4.112h-.76V77h2.432zm4.88 0v-.8h-3.12l3.032-3.976v-.808H80.8v.8h2.872l-3.032 3.976V77h4.136zm4.56 0v-.8h-2.672v-1.632h2.424v-.8h-2.424v-1.552h2.672v-.8H85.76V77h3.576zm2.032 0v-4.272h.024l.616 1.184L93.832 77h1.008v-5.584h-.864v4.272h-.024l-.616-1.184-1.824-3.088h-1.008V77h.864zM68.52 91v-.752h-1.36v-4.832h-1.376L64.36 86.96l.552.496 1.296-1.384h.064v4.176h-1.568V91h3.816zm2.6 0l1.968-4.8v-.784h-3.784v1.776h.776V86.16h2.112L70.168 91h.952zm5.92 0v-4.272h.04l.44.904 1.224 2.232 1.224-2.232.44-.904h.04V91h.864v-5.584h-1.024l-1.496 2.84h-.048l-1.496-2.84h-1.072V91h.864zm6.056 0l.488-1.512h2.088L86.176 91h.944l-1.904-5.584H84.08L82.176 91h.92zm2.352-2.288H83.8l.808-2.464h.04l.8 2.464zM90.208 91v-2.216l1.936-3.368h-.992L89.8 87.904h-.024l-1.36-2.488h-1.032l1.92 3.384V91h.904zm6.312.096c.325 0 .612-.041.86-.124.248-.083.456-.196.624-.34.168-.144.296-.315.384-.512.088-.197.132-.41.132-.64 0-.373-.103-.673-.308-.9-.205-.227-.476-.385-.812-.476v-.064c.288-.101.519-.261.692-.48.173-.219.26-.488.26-.808 0-.213-.041-.408-.124-.584-.083-.176-.201-.327-.356-.452-.155-.125-.347-.223-.576-.292-.23-.07-.488-.104-.776-.104-.288 0-.547.035-.776.104-.23.07-.421.167-.576.292-.155.125-.273.276-.356.452-.083.176-.124.37-.124.584 0 .32.087.59.26.808.173.219.404.379.692.48v.064c-.336.09-.607.25-.812.476-.205.227-.308.527-.308.9 0 .23.044.443.132.64.088.197.216.368.384.512.168.144.376.257.624.34.248.083.535.124.86.124zm0-3.344c-.31 0-.545-.067-.708-.2-.163-.133-.244-.328-.244-.584v-.136c0-.256.081-.45.244-.584.163-.133.399-.2.708-.2.31 0 .545.067.708.2.163.133.244.328.244.584v.136c0 .256-.081.45-.244.584-.163.133-.399.2-.708.2zm0 2.616c-.336 0-.596-.077-.78-.232-.184-.155-.276-.37-.276-.648v-.16c0-.277.092-.493.276-.648.184-.155.444-.232.78-.232s.596.077.78.232c.184.155.276.37.276.648v.16c0 .277-.092.493-.276.648-.184.155-.444.232-.78.232zm4.752.632c.23-.15.463-.341.7-.576.237-.235.452-.501.644-.8.192-.299.35-.627.472-.984.123-.357.184-.739.184-1.144 0-.336-.045-.637-.136-.904-.09-.267-.22-.495-.388-.684-.168-.19-.373-.335-.616-.436-.243-.101-.519-.152-.828-.152-.299 0-.568.047-.808.14-.24.093-.445.223-.616.388-.17.165-.303.365-.396.6-.093.235-.14.49-.14.768 0 .267.041.505.124.716.083.21.197.392.344.544.147.152.32.268.52.348.2.08.417.12.652.12.176 0 .33-.021.464-.064.133-.043.252-.101.356-.176.104-.075.195-.161.272-.26.077-.099.145-.204.204-.316l.056.016c-.07.299-.167.573-.292.824-.125.25-.281.488-.468.712-.187.224-.405.443-.656.656-.25.213-.533.435-.848.664h1.2zm.032-2.784c-.325 0-.579-.087-.76-.26-.181-.173-.272-.428-.272-.764v-.112c0-.336.09-.59.272-.764.181-.173.435-.26.76-.26s.579.087.76.26c.181.173.272.428.272.764v.112c0 .336-.09.59-.272.764-.181.173-.435.26-.76.26zM177 141.12c.913 0 1.59-.317 2.03-.95.44-.633.66-1.52.66-2.66 0-1.14-.22-2.027-.66-2.66-.44-.633-1.117-.95-2.03-.95-.913 0-1.59.317-2.03.95-.44.633-.66 1.52-.66 2.66 0 1.14.22 2.027.66 2.66.44.633 1.117.95 2.03.95zm0-1.27c-.4 0-.677-.147-.83-.44-.153-.293-.23-.707-.23-1.24v-1.32c0-.533.077-.947.23-1.24.153-.293.43-.44.83-.44.4 0 .677.147.83.44.153.293.23.707.23 1.24v1.32c0 .533-.077.947-.23 1.24-.153.293-.43.44-.83.44zm6 1.27c.913 0 1.59-.317 2.03-.95.44-.633.66-1.52.66-2.66 0-1.14-.22-2.027-.66-2.66-.44-.633-1.117-.95-2.03-.95-.913 0-1.59.317-2.03.95-.44.633-.66 1.52-.66 2.66 0 1.14.22 2.027.66 2.66.44.633 1.117.95 2.03.95zm0-1.27c-.4 0-.677-.147-.83-.44-.153-.293-.23-.707-.23-1.24v-1.32c0-.533.077-.947.23-1.24.153-.293.43-.44.83-.44.4 0 .677.147.83.44.153.293.23.707.23 1.24v1.32c0 .533-.077.947-.23 1.24-.153.293-.43.44-.83.44zm6 1.27c.913 0 1.59-.317 2.03-.95.44-.633.66-1.52.66-2.66 0-1.14-.22-2.027-.66-2.66-.44-.633-1.117-.95-2.03-.95-.913 0-1.59.317-2.03.95-.44.633-.66 1.52-.66 2.66 0 1.14.22 2.027.66 2.66.44.633 1.117.95 2.03.95zm0-1.27c-.4 0-.677-.147-.83-.44-.153-.293-.23-.707-.23-1.24v-1.32c0-.533.077-.947.23-1.24.153-.293.43-.44.83-.44.4 0 .677.147.83.44.153.293.23.707.23 1.24v1.32c0 .533-.077.947-.23 1.24-.153.293-.43.44-.83.44zm6 1.27c.913 0 1.59-.317 2.03-.95.44-.633.66-1.52.66-2.66 0-1.14-.22-2.027-.66-2.66-.44-.633-1.117-.95-2.03-.95-.913 0-1.59.317-2.03.95-.44.633-.66 1.52-.66 2.66 0 1.14.22 2.027.66 2.66.44.633 1.117.95 2.03.95zm0-1.27c-.4 0-.677-.147-.83-.44-.153-.293-.23-.707-.23-1.24v-1.32c0-.533.077-.947.23-1.24.153-.293.43-.44.83-.44.4 0 .677.147.83.44.153.293.23.707.23 1.24v1.32c0 .533-.077.947-.23 1.24-.153.293-.43.44-.83.44zm6 1.27c.913 0 1.59-.317 2.03-.95.44-.633.66-1.52.66-2.66 0-1.14-.22-2.027-.66-2.66-.44-.633-1.117-.95-2.03-.95-.913 0-1.59.317-2.03.95-.44.633-.66 1.52-.66 2.66 0 1.14.22 2.027.66 2.66.44.633 1.117.95 2.03.95zm0-1.27c-.4 0-.677-.147-.83-.44-.153-.293-.23-.707-.23-1.24v-1.32c0-.533.077-.947.23-1.24.153-.293.43-.44.83-.44.4 0 .677.147.83.44.153.293.23.707.23 1.24v1.32c0 .533-.077.947-.23 1.24-.153.293-.43.44-.83.44zm6 1.27c.913 0 1.59-.317 2.03-.95.44-.633.66-1.52.66-2.66 0-1.14-.22-2.027-.66-2.66-.44-.633-1.117-.95-2.03-.95-.913 0-1.59.317-2.03.95-.44.633-.66 1.52-.66 2.66 0 1.14.22 2.027.66 2.66.44.633 1.117.95 2.03.95zm0-1.27c-.4 0-.677-.147-.83-.44-.153-.293-.23-.707-.23-1.24v-1.32c0-.533.077-.947.23-1.24.153-.293.43-.44.83-.44.4 0 .677.147.83.44.153.293.23.707.23 1.24v1.32c0 .533-.077.947-.23 1.24-.153.293-.43.44-.83.44zm6 1.27c.913 0 1.59-.317 2.03-.95.44-.633.66-1.52.66-2.66 0-1.14-.22-2.027-.66-2.66-.44-.633-1.117-.95-2.03-.95-.913 0-1.59.317-2.03.95-.44.633-.66 1.52-.66 2.66 0 1.14.22 2.027.66 2.66.44.633 1.117.95 2.03.95zm0-1.27c-.4 0-.677-.147-.83-.44-.153-.293-.23-.707-.23-1.24v-1.32c0-.533.077-.947.23-1.24.153-.293.43-.44.83-.44.4 0 .677.147.83.44.153.293.23.707.23 1.24v1.32c0 .533-.077.947-.23 1.24-.153.293-.43.44-.83.44zm6 1.27c.913 0 1.59-.317 2.03-.95.44-.633.66-1.52.66-2.66 0-1.14-.22-2.027-.66-2.66-.44-.633-1.117-.95-2.03-.95-.913 0-1.59.317-2.03.95-.44.633-.66 1.52-.66 2.66 0 1.14.22 2.027.66 2.66.44.633 1.117.95 2.03.95zm0-1.27c-.4 0-.677-.147-.83-.44-.153-.293-.23-.707-.23-1.24v-1.32c0-.533.077-.947.23-1.24.153-.293.43-.44.83-.44.4 0 .677.147.83.44.153.293.23.707.23 1.24v1.32c0 .533-.077.947-.23 1.24-.153.293-.43.44-.83.44zm6 1.27c.913 0 1.59-.317 2.03-.95.44-.633.66-1.52.66-2.66 0-1.14-.22-2.027-.66-2.66-.44-.633-1.117-.95-2.03-.95-.913 0-1.59.317-2.03.95-.44.633-.66 1.52-.66 2.66 0 1.14.22 2.027.66 2.66.44.633 1.117.95 2.03.95zm0-1.27c-.4 0-.677-.147-.83-.44-.153-.293-.23-.707-.23-1.24v-1.32c0-.533.077-.947.23-1.24.153-.293.43-.44.83-.44.4 0 .677.147.83.44.153.293.23.707.23 1.24v1.32c0 .533-.077.947-.23 1.24-.153.293-.43.44-.83.44zm6 1.27c.913 0 1.59-.317 2.03-.95.44-.633.66-1.52.66-2.66 0-1.14-.22-2.027-.66-2.66-.44-.633-1.117-.95-2.03-.95-.913 0-1.59.317-2.03.95-.44.633-.66 1.52-.66 2.66 0 1.14.22 2.027.66 2.66.44.633 1.117.95 2.03.95zm0-1.27c-.4 0-.677-.147-.83-.44-.153-.293-.23-.707-.23-1.24v-1.32c0-.533.077-.947.23-1.24.153-.293.43-.44.83-.44.4 0 .677.147.83.44.153.293.23.707.23 1.24v1.32c0 .533-.077.947-.23 1.24-.153.293-.43.44-.83.44zM116 141.12c.913 0 1.59-.317 2.03-.95.44-.633.66-1.52.66-2.66 0-1.14-.22-2.027-.66-2.66-.44-.633-1.117-.95-2.03-.95-.913 0-1.59.317-2.03.95-.44.633-.66 1.52-.66 2.66 0 1.14.22 2.027.66 2.66.44.633 1.117.95 2.03.95zm0-1.27c-.4 0-.677-.147-.83-.44-.153-.293-.23-.707-.23-1.24v-1.32c0-.533.077-.947.23-1.24.153-.293.43-.44.83-.44.4 0 .677.147.83.44.153.293.23.707.23 1.24v1.32c0 .533-.077.947-.23 1.24-.153.293-.43.44-.83.44zm8.8 1.15v-1.21h-1.48v-5.77h-2.3l-1.67 2.2.96.75 1.42-1.86h.09v4.68h-1.88V141h4.86zm1.45 1.51l2.98-8.91h-1.22l-2.98 8.91h1.22zm6.09-1.39c.393 0 .753-.048 1.08-.145.327-.097.607-.235.84-.415.233-.18.413-.397.54-.65.127-.253.19-.537.19-.85 0-.24-.037-.455-.11-.645-.073-.19-.175-.355-.305-.495s-.283-.255-.46-.345c-.177-.09-.368-.155-.575-.195v-.06c.18-.033.35-.092.51-.175.16-.083.302-.192.425-.325s.22-.29.29-.47c.07-.18.105-.38.105-.6 0-.28-.058-.533-.175-.76-.117-.227-.283-.422-.5-.585-.217-.163-.477-.288-.78-.375-.303-.087-.642-.13-1.015-.13-.3 0-.57.028-.81.085-.24.057-.457.137-.65.24-.193.103-.367.227-.52.37-.153.143-.297.302-.43.475l.94.88c.173-.267.383-.472.63-.615.247-.143.51-.215.79-.215.3 0 .532.077.695.23.163.153.245.357.245.61v.07c0 .213-.085.392-.255.535-.17.143-.442.215-.815.215h-.65v1.25h.63c.38 0 .678.072.895.215.217.143.325.358.325.645v.06c0 .293-.095.525-.285.695-.19.17-.455.255-.795.255-.38 0-.682-.092-.905-.275-.223-.183-.412-.418-.565-.705l-1.11.86c.113.18.245.35.395.51.15.16.327.302.53.425s.442.222.715.295c.273.073.587.11.94.11zm6.26 0c.913 0 1.59-.317 2.03-.95.44-.633.66-1.52.66-2.66 0-1.14-.22-2.027-.66-2.66-.44-.633-1.117-.95-2.03-.95-.913 0-1.59.317-2.03.95-.44.633-.66 1.52-.66 2.66 0 1.14.22 2.027.66 2.66.44.633 1.117.95 2.03.95zm0-1.27c-.4 0-.677-.147-.83-.44-.153-.293-.23-.707-.23-1.24v-1.32c0-.533.077-.947.23-1.24.153-.293.43-.44.83-.44.4 0 .677.147.83.44.153.293.23.707.23 1.24v1.32c0 .533-.077.947-.23 1.24-.153.293-.43.44-.83.44zM124.52 91v-.752h-1.36v-4.832h-1.376l-1.424 1.544.552.496 1.296-1.384h.064v4.176h-1.568V91h3.816zm4.008 0v-1.088h.76V89.2h-.76v-3.784h-1.184l-2.264 3.72v.776h2.592V91h.856zm-.856-1.8h-1.824l1.768-2.96h.056v2.96zm5.712 1.896c.256 0 .49-.039.7-.116.21-.077.39-.187.536-.328.147-.141.26-.31.34-.508.08-.197.12-.419.12-.664v-4.064h-2.728v.752h1.824v3.216c0 .304-.072.53-.216.68-.144.15-.336.224-.576.224-.245 0-.436-.07-.572-.208-.136-.139-.228-.328-.276-.568l-.832.184c.075.416.252.753.532 1.012s.663.388 1.148.388zm5.096 0c.384 0 .708-.048.972-.144.264-.096.479-.241.644-.436.165-.195.285-.441.36-.74.075-.299.112-.653.112-1.064v-3.296h-.888v3.44c0 .475-.09.832-.272 1.072-.181.24-.49.36-.928.36-.437 0-.747-.12-.928-.36-.181-.24-.272-.597-.272-1.072v-3.44h-.888v3.296c0 .41.037.765.112 1.064.075.299.195.545.36.74.165.195.38.34.644.436.264.096.588.144.972.144zm6.608-.096v-.8h-2.272v-4.784h-.904V91h3.176zm6.456 0v-.768h-2.816l1.312-1.128c.181-.16.353-.317.516-.472.163-.155.305-.317.428-.488.123-.17.219-.352.288-.544.07-.192.104-.4.104-.624 0-.24-.04-.461-.12-.664-.08-.203-.196-.377-.348-.524-.152-.147-.34-.261-.564-.344-.224-.083-.477-.124-.76-.124-.283 0-.53.037-.74.112-.21.075-.393.176-.548.304-.155.128-.283.273-.384.436-.101.163-.181.332-.24.508l.792.304c.032-.123.076-.237.132-.344.056-.107.127-.2.212-.28.085-.08.185-.143.3-.188.115-.045.25-.068.404-.068.277 0 .497.077.66.232.163.155.244.368.244.64v.104c0 .256-.076.5-.228.732-.152.232-.37.476-.652.732l-1.784 1.592V91h3.792zm2.872.096c.693 0 1.204-.253 1.532-.76.328-.507.492-1.216.492-2.128 0-.912-.164-1.621-.492-2.128-.328-.507-.839-.76-1.532-.76-.347 0-.648.065-.904.196-.256.13-.467.319-.632.564-.165.245-.288.548-.368.908-.08.36-.12.767-.12 1.22 0 .459.04.867.12 1.224.08.357.203.659.368.904.165.245.376.433.632.564.256.13.557.196.904.196zm0-.768c-.192 0-.356-.039-.492-.116-.136-.077-.247-.188-.332-.332-.085-.144-.147-.316-.184-.516-.037-.2-.056-.423-.056-.668v-.976c0-.245.019-.468.056-.668.037-.2.099-.372.184-.516.085-.144.196-.255.332-.332.136-.077.3-.116.492-.116s.356.039.492.116c.136.077.247.188.332.332.085.144.147.316.184.516.037.2.056.423.056.668v.976c0 .245-.019.468-.056.668-.037.2-.099.372-.184.516-.085.144-.196.255-.332.332-.136.077-.3.116-.492.116z" opacity=".4"/>
                    <path fill="#333" fill-rule="nonzero" d="M48.12 115v-1.694h-2.072v-8.078h-3.22l-2.338 3.08 1.344 1.05 1.988-2.604h.126v6.552h-2.632V115h6.804zm7.994 0v-1.764h-4.62l1.82-1.428c.345-.28.677-.555.994-.826.317-.27.595-.558.833-.861.238-.303.427-.628.567-.973.14-.345.21-.728.21-1.148 0-.42-.075-.81-.224-1.169-.15-.36-.366-.67-.651-.931-.285-.261-.632-.467-1.043-.616-.41-.15-.882-.224-1.414-.224-.504 0-.957.065-1.358.196-.401.13-.749.31-1.043.539-.294.229-.539.495-.735.798-.196.303-.35.623-.462.959l1.834.7c.047-.187.112-.362.196-.525.084-.163.189-.308.315-.434s.275-.226.448-.301c.173-.075.376-.112.609-.112.159 0 .315.023.469.07.154.047.292.117.413.21.121.093.22.21.294.35.075.14.112.303.112.49v.196c0 .205-.026.397-.077.574-.051.177-.135.357-.252.539-.117.182-.268.369-.455.56-.187.191-.415.404-.686.637l-3.01 2.576V115h6.916zm4.522.168c.55 0 1.055-.068 1.512-.203.457-.135.85-.329 1.176-.581.327-.252.579-.555.756-.91.177-.355.266-.751.266-1.19 0-.336-.051-.637-.154-.903-.103-.266-.245-.497-.427-.693-.182-.196-.397-.357-.644-.483s-.516-.217-.805-.273v-.084c.252-.047.49-.128.714-.245.224-.117.422-.268.595-.455s.308-.406.406-.658c.098-.252.147-.532.147-.84 0-.392-.082-.747-.245-1.064-.163-.317-.397-.59-.7-.819-.303-.229-.667-.404-1.092-.525-.425-.121-.898-.182-1.421-.182-.42 0-.798.04-1.134.119-.336.08-.64.191-.91.336-.27.145-.513.317-.728.518-.215.2-.415.422-.602.665l1.316 1.232c.243-.373.537-.66.882-.861.345-.2.714-.301 1.106-.301.42 0 .744.107.973.322.229.215.343.5.343.854v.098c0 .299-.119.548-.357.749-.238.2-.618.301-1.141.301h-.91v1.75h.882c.532 0 .95.1 1.253.301.303.2.455.502.455.903v.084c0 .41-.133.735-.399.973s-.637.357-1.113.357c-.532 0-.954-.128-1.267-.385-.313-.257-.576-.586-.791-.987l-1.554 1.204c.159.252.343.49.553.714.21.224.457.422.742.595s.618.31 1.001.413c.383.103.821.154 1.316.154zM71.92 115v-1.876h1.232V111.5H71.92v-6.272h-2.492l-3.808 6.104v1.792h4.298V115h2.002zm-2.002-3.5H67.3l2.478-4.102h.14v4.102zm17.724 3.668c.597 0 1.13-.086 1.596-.259.467-.173.861-.413 1.183-.721.322-.308.565-.674.728-1.099.163-.425.245-.884.245-1.379 0-.485-.08-.922-.238-1.309-.159-.387-.373-.714-.644-.98-.27-.266-.588-.469-.952-.609s-.756-.21-1.176-.21c-.308 0-.574.037-.798.112-.224.075-.415.18-.574.315-.159.135-.296.299-.413.49-.117.191-.222.404-.315.637h-.112l.21-3.094h4.438v-1.834h-5.978l-.364 5.53 1.722.238c.13-.15.32-.301.567-.455.247-.154.562-.231.945-.231.457 0 .817.13 1.078.392.261.261.392.616.392 1.064v.112c0 .476-.128.859-.385 1.148-.257.29-.637.434-1.141.434s-.905-.133-1.204-.399c-.299-.266-.555-.59-.77-.973l-1.526 1.204c.15.252.327.49.532.714.205.224.448.422.728.595.28.173.602.31.966.413.364.103.784.154 1.26.154zm8.526 0c.56 0 1.064-.084 1.512-.252.448-.168.833-.404 1.155-.707.322-.303.57-.665.742-1.085.173-.42.259-.882.259-1.386 0-.457-.072-.875-.217-1.253-.145-.378-.345-.698-.602-.959s-.56-.464-.91-.609c-.35-.145-.726-.217-1.127-.217-.308 0-.579.042-.812.126-.233.084-.436.194-.609.329s-.317.292-.434.469c-.117.177-.217.36-.301.546l-.126-.042c.093-.467.254-.903.483-1.309.229-.406.518-.805.868-1.197s.763-.782 1.239-1.169c.476-.387 1.013-.796 1.61-1.225H96c-.42.28-.838.625-1.253 1.036-.415.41-.789.875-1.12 1.393-.331.518-.602 1.083-.812 1.694-.21.611-.315 1.258-.315 1.939 0 .588.082 1.12.245 1.596.163.476.401.884.714 1.225.313.34.698.602 1.155.784.457.182.975.273 1.554.273zm0-1.638c-.467 0-.83-.128-1.092-.385-.261-.257-.392-.623-.392-1.099v-.252c0-.476.13-.842.392-1.099.261-.257.625-.385 1.092-.385.467 0 .83.128 1.092.385.261.257.392.623.392 1.099v.252c0 .476-.13.842-.392 1.099-.261.257-.625.385-1.092.385zm11.648 1.638c1.279 0 2.226-.443 2.842-1.33.616-.887.924-2.128.924-3.724s-.308-2.837-.924-3.724c-.616-.887-1.563-1.33-2.842-1.33-1.279 0-2.226.443-2.842 1.33-.616.887-.924 2.128-.924 3.724s.308 2.837.924 3.724c.616.887 1.563 1.33 2.842 1.33zm0-1.778c-.56 0-.947-.205-1.162-.616-.215-.41-.322-.99-.322-1.736v-1.848c0-.747.107-1.325.322-1.736.215-.41.602-.616 1.162-.616.56 0 .947.205 1.162.616.215.41.322.99.322 1.736v1.848c0 .747-.107 1.325-.322 1.736-.215.41-.602.616-1.162.616zm8.4 1.778c1.279 0 2.226-.443 2.842-1.33.616-.887.924-2.128.924-3.724s-.308-2.837-.924-3.724c-.616-.887-1.563-1.33-2.842-1.33-1.279 0-2.226.443-2.842 1.33-.616.887-.924 2.128-.924 3.724s.308 2.837.924 3.724c.616.887 1.563 1.33 2.842 1.33zm0-1.778c-.56 0-.947-.205-1.162-.616-.215-.41-.322-.99-.322-1.736v-1.848c0-.747.107-1.325.322-1.736.215-.41.602-.616 1.162-.616.56 0 .947.205 1.162.616.215.41.322.99.322 1.736v1.848c0 .747-.107 1.325-.322 1.736-.215.41-.602.616-1.162.616zm21.616 1.778c1.279 0 2.226-.443 2.842-1.33.616-.887.924-2.128.924-3.724s-.308-2.837-.924-3.724c-.616-.887-1.563-1.33-2.842-1.33-1.279 0-2.226.443-2.842 1.33-.616.887-.924 2.128-.924 3.724s.308 2.837.924 3.724c.616.887 1.563 1.33 2.842 1.33zm0-1.778c-.56 0-.947-.205-1.162-.616-.215-.41-.322-.99-.322-1.736v-1.848c0-.747.107-1.325.322-1.736.215-.41.602-.616 1.162-.616.56 0 .947.205 1.162.616.215.41.322.99.322 1.736v1.848c0 .747-.107 1.325-.322 1.736-.215.41-.602.616-1.162.616zm8.4 1.778c1.279 0 2.226-.443 2.842-1.33.616-.887.924-2.128.924-3.724s-.308-2.837-.924-3.724c-.616-.887-1.563-1.33-2.842-1.33-1.279 0-2.226.443-2.842 1.33-.616.887-.924 2.128-.924 3.724s.308 2.837.924 3.724c.616.887 1.563 1.33 2.842 1.33zm0-1.778c-.56 0-.947-.205-1.162-.616-.215-.41-.322-.99-.322-1.736v-1.848c0-.747.107-1.325.322-1.736.215-.41.602-.616 1.162-.616.56 0 .947.205 1.162.616.215.41.322.99.322 1.736v1.848c0 .747-.107 1.325-.322 1.736-.215.41-.602.616-1.162.616zm8.4 1.778c1.279 0 2.226-.443 2.842-1.33.616-.887.924-2.128.924-3.724s-.308-2.837-.924-3.724c-.616-.887-1.563-1.33-2.842-1.33-1.279 0-2.226.443-2.842 1.33-.616.887-.924 2.128-.924 3.724s.308 2.837.924 3.724c.616.887 1.563 1.33 2.842 1.33zm0-1.778c-.56 0-.947-.205-1.162-.616-.215-.41-.322-.99-.322-1.736v-1.848c0-.747.107-1.325.322-1.736.215-.41.602-.616 1.162-.616.56 0 .947.205 1.162.616.215.41.322.99.322 1.736v1.848c0 .747-.107 1.325-.322 1.736-.215.41-.602.616-1.162.616zm8.4 1.778c1.279 0 2.226-.443 2.842-1.33.616-.887.924-2.128.924-3.724s-.308-2.837-.924-3.724c-.616-.887-1.563-1.33-2.842-1.33-1.279 0-2.226.443-2.842 1.33-.616.887-.924 2.128-.924 3.724s.308 2.837.924 3.724c.616.887 1.563 1.33 2.842 1.33zm0-1.778c-.56 0-.947-.205-1.162-.616-.215-.41-.322-.99-.322-1.736v-1.848c0-.747.107-1.325.322-1.736.215-.41.602-.616 1.162-.616.56 0 .947.205 1.162.616.215.41.322.99.322 1.736v1.848c0 .747-.107 1.325-.322 1.736-.215.41-.602.616-1.162.616zm22.232 1.61v-1.694h-2.072v-8.078h-3.22l-2.338 3.08 1.344 1.05 1.988-2.604h.126v6.552h-2.632V115h6.804zm7.994 0v-1.764h-4.62l1.82-1.428c.345-.28.677-.555.994-.826.317-.27.595-.558.833-.861.238-.303.427-.628.567-.973.14-.345.21-.728.21-1.148 0-.42-.075-.81-.224-1.169-.15-.36-.366-.67-.651-.931-.285-.261-.632-.467-1.043-.616-.41-.15-.882-.224-1.414-.224-.504 0-.957.065-1.358.196-.401.13-.749.31-1.043.539-.294.229-.539.495-.735.798-.196.303-.35.623-.462.959l1.834.7c.047-.187.112-.362.196-.525.084-.163.189-.308.315-.434s.275-.226.448-.301c.173-.075.376-.112.609-.112.159 0 .315.023.469.07.154.047.292.117.413.21.121.093.22.21.294.35.075.14.112.303.112.49v.196c0 .205-.026.397-.077.574-.051.177-.135.357-.252.539-.117.182-.268.369-.455.56-.187.191-.415.404-.686.637l-3.01 2.576V115h6.916zm4.522.168c.55 0 1.055-.068 1.512-.203.457-.135.85-.329 1.176-.581.327-.252.579-.555.756-.91.177-.355.266-.751.266-1.19 0-.336-.051-.637-.154-.903-.103-.266-.245-.497-.427-.693-.182-.196-.397-.357-.644-.483s-.516-.217-.805-.273v-.084c.252-.047.49-.128.714-.245.224-.117.422-.268.595-.455s.308-.406.406-.658c.098-.252.147-.532.147-.84 0-.392-.082-.747-.245-1.064-.163-.317-.397-.59-.7-.819-.303-.229-.667-.404-1.092-.525-.425-.121-.898-.182-1.421-.182-.42 0-.798.04-1.134.119-.336.08-.64.191-.91.336-.27.145-.513.317-.728.518-.215.2-.415.422-.602.665l1.316 1.232c.243-.373.537-.66.882-.861.345-.2.714-.301 1.106-.301.42 0 .744.107.973.322.229.215.343.5.343.854v.098c0 .299-.119.548-.357.749-.238.2-.618.301-1.141.301h-.91v1.75h.882c.532 0 .95.1 1.253.301.303.2.455.502.455.903v.084c0 .41-.133.735-.399.973s-.637.357-1.113.357c-.532 0-.954-.128-1.267-.385-.313-.257-.576-.586-.791-.987l-1.554 1.204c.159.252.343.49.553.714.21.224.457.422.742.595s.618.31 1.001.413c.383.103.821.154 1.316.154zm11.284-.168v-1.876h1.232V111.5h-1.232v-6.272h-2.492l-3.808 6.104v1.792h4.298V115h2.002zm-2.002-3.5h-2.618l2.478-4.102h.14v4.102z"/>
                    <rect width="64" height="18" x="103" y="101" fill="#E98024" rx="4"/>
                </g>
            </g>
        </g>
    </g>
</svg>
