<svg xmlns="http://www.w3.org/2000/svg" width="250" height="156" viewBox="0 0 250 156">
    <g fill="none" fill-rule="evenodd">
        <g>
            <g>
                <g transform="translate(-648 -437) translate(340 194) translate(308 243)">
                    <rect width="250" height="156" fill="#FFF" rx="16"/>
                    <rect width="248" height="154" x="1" y="1" fill="#F2F2F2" fill-opacity=".4" stroke="#DEDEDE" stroke-width="2" rx="16"/>
                    <path fill="#333" fill-rule="nonzero" d="M19.7 116v-1.06h-.93v-4.86h.93v-1.06h-3.17v1.06h.92v4.86h-.92V116h3.17zm5.54.04v-1.3l-2.7-1.65v-.07l2.7-1.65v-1.3l-4.02 2.56v.85l4.02 2.56zm5.42-.04v-5.03h.03l.72 1.45 2.1 3.58h1.45v-6.98h-1.25v5.03h-.03l-.72-1.45-2.1-3.58h-1.45V116h1.25zm8.52.12c1.05 0 1.71-.52 1.83-1.2h.04V116h1.14v-3.8h-2.64v1.11h1.37v.45c0 .79-.67 1.19-1.49 1.19-1.05 0-1.73-.66-1.73-1.88v-1.12c0-1.23.68-1.88 1.71-1.88.83 0 1.32.45 1.57 1.05l1.07-.63c-.5-1.02-1.4-1.59-2.64-1.59-1.86 0-3.11 1.29-3.11 3.63s1.24 3.59 2.88 3.59zm5.86-.12v-2.69h1.25l1.3 2.69h1.47l-1.43-2.84c.86-.29 1.3-1.02 1.3-1.98 0-1.32-.79-2.16-2.06-2.16h-3.15V116h1.32zm1.7-3.8h-1.7v-2.03h1.7c.51 0 .82.27.82.78v.46c0 .51-.31.79-.82.79zm5.8 3.92c1.78 0 2.6-1.33 2.6-3.61s-.82-3.61-2.6-3.61c-1.78 0-2.6 1.33-2.6 3.61s.82 3.61 2.6 3.61zm0-1.11c-.89 0-1.2-.72-1.2-1.87v-1.26c0-1.15.31-1.87 1.2-1.87.89 0 1.2.72 1.2 1.87v1.26c0 1.15-.31 1.87-1.2 1.87zm6 1.11c1.78 0 2.6-1.33 2.6-3.61s-.82-3.61-2.6-3.61c-1.78 0-2.6 1.33-2.6 3.61s.82 3.61 2.6 3.61zm0-1.11c-.89 0-1.2-.72-1.2-1.87v-1.26c0-1.15.31-1.87 1.2-1.87.89 0 1.2.72 1.2 1.87v1.26c0 1.15-.31 1.87-1.2 1.87zm6 1.11c1.78 0 2.6-1.33 2.6-3.61s-.82-3.61-2.6-3.61c-1.78 0-2.6 1.33-2.6 3.61s.82 3.61 2.6 3.61zm0-1.11c-.89 0-1.2-.72-1.2-1.87v-1.26c0-1.15.31-1.87 1.2-1.87.89 0 1.2.72 1.2 1.87v1.26c0 1.15-.31 1.87-1.2 1.87zm6 1.11c1.78 0 2.6-1.33 2.6-3.61s-.82-3.61-2.6-3.61c-1.78 0-2.6 1.33-2.6 3.61s.82 3.61 2.6 3.61zm0-1.11c-.89 0-1.2-.72-1.2-1.87v-1.26c0-1.15.31-1.87 1.2-1.87.89 0 1.2.72 1.2 1.87v1.26c0 1.15-.31 1.87-1.2 1.87zm6 1.11c1.78 0 2.6-1.33 2.6-3.61s-.82-3.61-2.6-3.61c-1.78 0-2.6 1.33-2.6 3.61s.82 3.61 2.6 3.61zm0-1.11c-.89 0-1.2-.72-1.2-1.87v-1.26c0-1.15.31-1.87 1.2-1.87.89 0 1.2.72 1.2 1.87v1.26c0 1.15-.31 1.87-1.2 1.87zm6 1.11c1.78 0 2.6-1.33 2.6-3.61s-.82-3.61-2.6-3.61c-1.78 0-2.6 1.33-2.6 3.61s.82 3.61 2.6 3.61zm0-1.11c-.89 0-1.2-.72-1.2-1.87v-1.26c0-1.15.31-1.87 1.2-1.87.89 0 1.2.72 1.2 1.87v1.26c0 1.15-.31 1.87-1.2 1.87zm6 1.11c1.78 0 2.6-1.33 2.6-3.61s-.82-3.61-2.6-3.61c-1.78 0-2.6 1.33-2.6 3.61s.82 3.61 2.6 3.61zm0-1.11c-.89 0-1.2-.72-1.2-1.87v-1.26c0-1.15.31-1.87 1.2-1.87.89 0 1.2.72 1.2 1.87v1.26c0 1.15-.31 1.87-1.2 1.87zm6 1.11c1.78 0 2.6-1.33 2.6-3.61s-.82-3.61-2.6-3.61c-1.78 0-2.6 1.33-2.6 3.61s.82 3.61 2.6 3.61zm0-1.11c-.89 0-1.2-.72-1.2-1.87v-1.26c0-1.15.31-1.87 1.2-1.87.89 0 1.2.72 1.2 1.87v1.26c0 1.15-.31 1.87-1.2 1.87zm6 1.11c1.78 0 2.6-1.33 2.6-3.61s-.82-3.61-2.6-3.61c-1.78 0-2.6 1.33-2.6 3.61s.82 3.61 2.6 3.61zm0-1.11c-.89 0-1.2-.72-1.2-1.87v-1.26c0-1.15.31-1.87 1.2-1.87.89 0 1.2.72 1.2 1.87v1.26c0 1.15-.31 1.87-1.2 1.87zm6 1.11c1.78 0 2.6-1.33 2.6-3.61s-.82-3.61-2.6-3.61c-1.78 0-2.6 1.33-2.6 3.61s.82 3.61 2.6 3.61zm0-1.11c-.89 0-1.2-.72-1.2-1.87v-1.26c0-1.15.31-1.87 1.2-1.87.89 0 1.2.72 1.2 1.87v1.26c0 1.15-.31 1.87-1.2 1.87zm8.01 1.03v-1.3l-2.7-1.65v-.07l2.7-1.65v-1.3l-4.02 2.56v.85l4.02 2.56zm6 0v-1.3l-2.7-1.65v-.07l2.7-1.65v-1.3l-4.02 2.56v.85l4.02 2.56zm6 0v-1.3l-2.7-1.65v-.07l2.7-1.65v-1.3l-4.02 2.56v.85l4.02 2.56zm6 0v-1.3l-2.7-1.65v-.07l2.7-1.65v-1.3l-4.02 2.56v.85l4.02 2.56zm6 0v-1.3l-2.7-1.65v-.07l2.7-1.65v-1.3l-4.02 2.56v.85l4.02 2.56zm6 0v-1.3l-2.7-1.65v-.07l2.7-1.65v-1.3l-4.02 2.56v.85l4.02 2.56zm6 0v-1.3l-2.7-1.65v-.07l2.7-1.65v-1.3l-4.02 2.56v.85l4.02 2.56zm6 0v-1.3l-2.7-1.65v-.07l2.7-1.65v-1.3l-4.02 2.56v.85l4.02 2.56zm6 0v-1.3l-2.7-1.65v-.07l2.7-1.65v-1.3l-4.02 2.56v.85l4.02 2.56zm6 0v-1.3l-2.7-1.65v-.07l2.7-1.65v-1.3l-4.02 2.56v.85l4.02 2.56zm6 0v-1.3l-2.7-1.65v-.07l2.7-1.65v-1.3l-4.02 2.56v.85l4.02 2.56zm6 0v-1.3l-2.7-1.65v-.07l2.7-1.65v-1.3l-4.02 2.56v.85l4.02 2.56zm6 0v-1.3l-2.7-1.65v-.07l2.7-1.65v-1.3l-4.02 2.56v.85l4.02 2.56zm6 0v-1.3l-2.7-1.65v-.07l2.7-1.65v-1.3l-4.02 2.56v.85l4.02 2.56zm6 0v-1.3l-2.7-1.65v-.07l2.7-1.65v-1.3l-4.02 2.56v.85l4.02 2.56zm6 0v-1.3l-2.7-1.65v-.07l2.7-1.65v-1.3l-4.02 2.56v.85l4.02 2.56zm6 0v-1.3l-2.7-1.65v-.07l2.7-1.65v-1.3l-4.02 2.56v.85l4.02 2.56zm6 0v-1.3l-2.7-1.65v-.07l2.7-1.65v-1.3l-4.02 2.56v.85l4.02 2.56zm6 0v-1.3l-2.7-1.65v-.07l2.7-1.65v-1.3l-4.02 2.56v.85l4.02 2.56zm6 0v-1.3l-2.7-1.65v-.07l2.7-1.65v-1.3l-4.02 2.56v.85l4.02 2.56zM19 129.12c1.78 0 2.6-1.33 2.6-3.61s-.82-3.61-2.6-3.61c-1.78 0-2.6 1.33-2.6 3.61s.82 3.61 2.6 3.61zm0-1.11c-.89 0-1.2-.72-1.2-1.87v-1.26c0-1.15.31-1.87 1.2-1.87.89 0 1.2.72 1.2 1.87v1.26c0 1.15-.31 1.87-1.2 1.87zm6 1.11c1.78 0 2.6-1.33 2.6-3.61s-.82-3.61-2.6-3.61c-1.78 0-2.6 1.33-2.6 3.61s.82 3.61 2.6 3.61zm0-1.11c-.89 0-1.2-.72-1.2-1.87v-1.26c0-1.15.31-1.87 1.2-1.87.89 0 1.2.72 1.2 1.87v1.26c0 1.15-.31 1.87-1.2 1.87zm6 1.11c1.78 0 2.6-1.33 2.6-3.61s-.82-3.61-2.6-3.61c-1.78 0-2.6 1.33-2.6 3.61s.82 3.61 2.6 3.61zm0-1.11c-.89 0-1.2-.72-1.2-1.87v-1.26c0-1.15.31-1.87 1.2-1.87.89 0 1.2.72 1.2 1.87v1.26c0 1.15-.31 1.87-1.2 1.87zm6 1.11c1.78 0 2.6-1.33 2.6-3.61s-.82-3.61-2.6-3.61c-1.78 0-2.6 1.33-2.6 3.61s.82 3.61 2.6 3.61zm0-1.11c-.89 0-1.2-.72-1.2-1.87v-1.26c0-1.15.31-1.87 1.2-1.87.89 0 1.2.72 1.2 1.87v1.26c0 1.15-.31 1.87-1.2 1.87zm6 1.11c1.78 0 2.6-1.33 2.6-3.61s-.82-3.61-2.6-3.61c-1.78 0-2.6 1.33-2.6 3.61s.82 3.61 2.6 3.61zm0-1.11c-.89 0-1.2-.72-1.2-1.87v-1.26c0-1.15.31-1.87 1.2-1.87.89 0 1.2.72 1.2 1.87v1.26c0 1.15-.31 1.87-1.2 1.87zm6 1.11c1.78 0 2.6-1.33 2.6-3.61s-.82-3.61-2.6-3.61c-1.78 0-2.6 1.33-2.6 3.61s.82 3.61 2.6 3.61zm0-1.11c-.89 0-1.2-.72-1.2-1.87v-1.26c0-1.15.31-1.87 1.2-1.87.89 0 1.2.72 1.2 1.87v1.26c0 1.15-.31 1.87-1.2 1.87zm5.07.99v-5.01h.04l.54 1.11 1.43 2.64 1.43-2.64.54-1.11h.04V129h1.25v-6.98h-1.43l-1.77 3.41h-.04l-1.79-3.41h-1.49V129h1.25zm9.09.12c1.78 0 2.6-1.33 2.6-3.61s-.82-3.61-2.6-3.61c-1.78 0-2.6 1.33-2.6 3.61s.82 3.61 2.6 3.61zm0-1.11c-.89 0-1.2-.72-1.2-1.87v-1.26c0-1.15.31-1.87 1.2-1.87.89 0 1.2.72 1.2 1.87v1.26c0 1.15-.31 1.87-1.2 1.87zm6 1.11c1.78 0 2.6-1.33 2.6-3.61s-.82-3.61-2.6-3.61c-1.78 0-2.6 1.33-2.6 3.61s.82 3.61 2.6 3.61zm0-1.11c-.89 0-1.2-.72-1.2-1.87v-1.26c0-1.15.31-1.87 1.2-1.87.89 0 1.2.72 1.2 1.87v1.26c0 1.15-.31 1.87-1.2 1.87zm6 1.11c1.78 0 2.6-1.33 2.6-3.61s-.82-3.61-2.6-3.61c-1.78 0-2.6 1.33-2.6 3.61s.82 3.61 2.6 3.61zm0-1.11c-.89 0-1.2-.72-1.2-1.87v-1.26c0-1.15.31-1.87 1.2-1.87.89 0 1.2.72 1.2 1.87v1.26c0 1.15-.31 1.87-1.2 1.87zm6 1.11c1.78 0 2.6-1.33 2.6-3.61s-.82-3.61-2.6-3.61c-1.78 0-2.6 1.33-2.6 3.61s.82 3.61 2.6 3.61zm0-1.11c-.89 0-1.2-.72-1.2-1.87v-1.26c0-1.15.31-1.87 1.2-1.87.89 0 1.2.72 1.2 1.87v1.26c0 1.15-.31 1.87-1.2 1.87zm6 1.11c1.78 0 2.6-1.33 2.6-3.61s-.82-3.61-2.6-3.61c-1.78 0-2.6 1.33-2.6 3.61s.82 3.61 2.6 3.61zm0-1.11c-.89 0-1.2-.72-1.2-1.87v-1.26c0-1.15.31-1.87 1.2-1.87.89 0 1.2.72 1.2 1.87v1.26c0 1.15-.31 1.87-1.2 1.87zm5.07.99v-5.03h.03l.72 1.45 2.1 3.58h1.45v-6.98h-1.25v5.03h-.03l-.72-1.45-2.1-3.58h-1.45V129h1.25zm8.52.12c1.05 0 1.71-.52 1.83-1.2h.04V129h1.14v-3.8h-2.64v1.11h1.37v.45c0 .79-.67 1.19-1.49 1.19-1.05 0-1.73-.66-1.73-1.88v-1.12c0-1.23.68-1.88 1.71-1.88.83 0 1.32.45 1.57 1.05l1.07-.63c-.5-1.02-1.4-1.59-2.64-1.59-1.86 0-3.11 1.29-3.11 3.63s1.24 3.59 2.88 3.59zm5.86-.12v-2.69h1.25l1.3 2.69h1.47l-1.43-2.84c.86-.29 1.3-1.02 1.3-1.98 0-1.32-.79-2.16-2.06-2.16h-3.15V129h1.32zm1.7-3.8h-1.7v-2.03h1.7c.51 0 .82.27.82.78v.46c0 .51-.31.79-.82.79zm7.81 3.84v-1.3l-2.7-1.65v-.07l2.7-1.65v-1.3l-4.02 2.56v.85l4.02 2.56zm6 0v-1.3l-2.7-1.65v-.07l2.7-1.65v-1.3l-4.02 2.56v.85l4.02 2.56zm6 0v-1.3l-2.7-1.65v-.07l2.7-1.65v-1.3l-4.02 2.56v.85l4.02 2.56zm6 0v-1.3l-2.7-1.65v-.07l2.7-1.65v-1.3l-4.02 2.56v.85l4.02 2.56zm6 0v-1.3l-2.7-1.65v-.07l2.7-1.65v-1.3l-4.02 2.56v.85l4.02 2.56zm6 0v-1.3l-2.7-1.65v-.07l2.7-1.65v-1.3l-4.02 2.56v.85l4.02 2.56zm6 0v-1.3l-2.7-1.65v-.07l2.7-1.65v-1.3l-4.02 2.56v.85l4.02 2.56zm6 0v-1.3l-2.7-1.65v-.07l2.7-1.65v-1.3l-4.02 2.56v.85l4.02 2.56zm6 0v-1.3l-2.7-1.65v-.07l2.7-1.65v-1.3l-4.02 2.56v.85l4.02 2.56zm6 0v-1.3l-2.7-1.65v-.07l2.7-1.65v-1.3l-4.02 2.56v.85l4.02 2.56zm6 0v-1.3l-2.7-1.65v-.07l2.7-1.65v-1.3l-4.02 2.56v.85l4.02 2.56zm6 0v-1.3l-2.7-1.65v-.07l2.7-1.65v-1.3l-4.02 2.56v.85l4.02 2.56zm6 0v-1.3l-2.7-1.65v-.07l2.7-1.65v-1.3l-4.02 2.56v.85l4.02 2.56zm6 0v-1.3l-2.7-1.65v-.07l2.7-1.65v-1.3l-4.02 2.56v.85l4.02 2.56zm6 0v-1.3l-2.7-1.65v-.07l2.7-1.65v-1.3l-4.02 2.56v.85l4.02 2.56zm6 0v-1.3l-2.7-1.65v-.07l2.7-1.65v-1.3l-4.02 2.56v.85l4.02 2.56zm6 0v-1.3l-2.7-1.65v-.07l2.7-1.65v-1.3l-4.02 2.56v.85l4.02 2.56zm6 0v-1.3l-2.7-1.65v-.07l2.7-1.65v-1.3l-4.02 2.56v.85l4.02 2.56zm6 0v-1.3l-2.7-1.65v-.07l2.7-1.65v-1.3l-4.02 2.56v.85l4.02 2.56zm6.45-.04v-1.11h-3.41l1.47-1.21c.97-.8 1.76-1.54 1.76-2.7 0-1.2-.84-2.08-2.31-2.08-1.42 0-2.17.81-2.47 1.74l1.14.44c.16-.57.5-1.04 1.22-1.04.57 0 1.03.34 1.03.95v.13c0 .61-.34 1.09-1.08 1.74l-2.19 1.92V129h4.84zM19.36 142c1.82 0 3.01-1.17 3.01-3.49 0-2.32-1.19-3.49-3.01-3.49h-2.54V142h2.54zm0-1.17h-1.22v-4.64h1.22c.98 0 1.61.58 1.61 1.77v1.1c0 1.19-.63 1.77-1.61 1.77zm6.38 1.29c.97 0 1.73-.37 2.16-.96l-.69-.77c-.32.41-.7.71-1.33.71-.84 0-1.27-.51-1.27-1.26v-.13h3.47v-.42c0-1.43-.75-2.63-2.38-2.63-1.53 0-2.42 1.07-2.42 2.72 0 1.67.92 2.74 2.46 2.74zm1.01-3.2h-2.14v-.08c0-.72.44-1.22 1.11-1.22.66 0 1.03.49 1.03 1.21v.09zm3.74 3.08v-3.45c0-.56.51-.84 1.04-.84.61 0 .86.38.86 1.12V142h1.28v-3.3c0-1.3-.6-2.04-1.67-2.04-.81 0-1.25.43-1.46.99h-.05v-.87h-1.28V142h1.28zm5.88 0v-3.45c0-.56.51-.84 1.04-.84.61 0 .86.38.86 1.12V142h1.28v-3.3c0-1.3-.6-2.04-1.67-2.04-.81 0-1.25.43-1.46.99h-.05v-.87h-1.28V142h1.28zm5.24-5.98c.52 0 .75-.27.75-.64v-.2c0-.37-.23-.64-.75-.64-.53 0-.75.27-.75.64v.2c0 .37.22.64.75.64zm.64 5.98v-5.22h-1.28V142h1.28zm3.19.12c1.3 0 2.15-.7 2.15-1.71 0-.87-.55-1.38-1.69-1.54l-.53-.07c-.49-.08-.68-.24-.68-.59 0-.32.24-.54.79-.54.51 0 .95.24 1.25.56l.75-.75c-.5-.52-1.02-.82-2.04-.82-1.19 0-1.98.64-1.98 1.65 0 .95.62 1.44 1.74 1.58l.52.07c.46.06.64.25.64.55 0 .37-.26.6-.87.6-.59 0-1.05-.27-1.43-.71l-.78.76c.52.6 1.17.96 2.16.96zm7.55-.08v-1.3l-2.7-1.65v-.07l2.7-1.65v-1.3l-4.02 2.56v.85l4.02 2.56zm6 0v-1.3l-2.7-1.65v-.07l2.7-1.65v-1.3l-4.02 2.56v.85l4.02 2.56zm6 0v-1.3l-2.7-1.65v-.07l2.7-1.65v-1.3l-4.02 2.56v.85l4.02 2.56zm6 0v-1.3l-2.7-1.65v-.07l2.7-1.65v-1.3l-4.02 2.56v.85l4.02 2.56zm6 0v-1.3l-2.7-1.65v-.07l2.7-1.65v-1.3l-4.02 2.56v.85l4.02 2.56zm6 0v-1.3l-2.7-1.65v-.07l2.7-1.65v-1.3l-4.02 2.56v.85l4.02 2.56zm6 0v-1.3l-2.7-1.65v-.07l2.7-1.65v-1.3l-4.02 2.56v.85l4.02 2.56zm3.06-.04v-5.03h.03l.72 1.45 2.1 3.58h1.45v-6.98H95.1v5.03h-.03l-.72-1.45-2.1-3.58H90.8V142h1.25zm8.82 0v-1.06h-.93v-4.86h.93v-1.06H97.7v1.06h.92v4.86h-.92V142h3.17zm3.93.12c1.05 0 1.71-.52 1.83-1.2h.04V142h1.14v-3.8h-2.64v1.11h1.37v.45c0 .79-.67 1.19-1.49 1.19-1.05 0-1.73-.66-1.73-1.88v-1.12c0-1.23.68-1.88 1.71-1.88.83 0 1.32.45 1.57 1.05l1.07-.63c-.5-1.02-1.4-1.59-2.64-1.59-1.86 0-3.11 1.29-3.11 3.63s1.24 3.59 2.88 3.59zm9.14-.12v-1.17h-3.28v-1.78h2.9v-1.17h-2.9v-1.69h3.28v-1.17h-4.6V142h4.6zm2.72 0v-2.69h1.25l1.3 2.69h1.47l-1.43-2.84c.86-.29 1.3-1.02 1.3-1.98 0-1.32-.79-2.16-2.06-2.16h-3.15V142h1.32zm1.7-3.8h-1.7v-2.03h1.7c.51 0 .82.27.82.78v.46c0 .51-.31.79-.82.79zm6.5 3.8v-1.06h-.93v-4.86h.93v-1.06h-3.17v1.06h.92v4.86h-.92V142h3.17zm2.08 0l.55-1.78h2.48l.56 1.78h1.37l-2.32-6.98h-1.64L125.6 142h1.34zm2.71-2.91h-1.84l.89-2.87h.05l.9 2.87zm4.53 2.91v-5.03h.03l.72 1.45 2.1 3.58h1.45v-6.98h-1.25v5.03h-.03l-.72-1.45-2.1-3.58h-1.45V142h1.25zm10.13.04v-1.3l-2.7-1.65v-.07l2.7-1.65v-1.3l-4.02 2.56v.85l4.02 2.56zm6 0v-1.3l-2.7-1.65v-.07l2.7-1.65v-1.3l-4.02 2.56v.85l4.02 2.56zm6 0v-1.3l-2.7-1.65v-.07l2.7-1.65v-1.3l-4.02 2.56v.85l4.02 2.56zm6 0v-1.3l-2.7-1.65v-.07l2.7-1.65v-1.3l-4.02 2.56v.85l4.02 2.56zm6 0v-1.3l-2.7-1.65v-.07l2.7-1.65v-1.3l-4.02 2.56v.85l4.02 2.56zm6 0v-1.3l-2.7-1.65v-.07l2.7-1.65v-1.3l-4.02 2.56v.85l4.02 2.56zm6 0v-1.3l-2.7-1.65v-.07l2.7-1.65v-1.3l-4.02 2.56v.85l4.02 2.56zm6 0v-1.3l-2.7-1.65v-.07l2.7-1.65v-1.3l-4.02 2.56v.85l4.02 2.56zm4.52.08c1.25 0 2.08-.61 2.58-1.65l-1.07-.63c-.23.63-.72 1.11-1.51 1.11-.98 0-1.61-.68-1.61-1.88v-1.1c0-1.19.63-1.9 1.61-1.9.78 0 1.22.42 1.42 1.04l1.13-.6c-.49-1.08-1.3-1.61-2.55-1.61-1.84 0-3.01 1.31-3.01 3.66s1.17 3.56 3.01 3.56zm6.59-.12v-1.06h-.93v-4.86h.93v-1.06h-3.17v1.06h.92v4.86h-.92V142h3.17zm4.09 0v-5.81h1.98v-1.17h-5.28v1.17h1.98V142h1.32zm5.94 0v-1.06h-.93v-4.86h.93v-1.06h-3.17v1.06h.92v4.86h-.92V142h3.17zm6.14 0v-1.17h-3.72l3.62-4.63v-1.18h-4.95v1.17h3.43l-3.61 4.63V142h5.23zm5.8 0v-1.17h-3.28v-1.78h2.9v-1.17h-2.9v-1.69h3.28v-1.17h-4.6V142h4.6zm2.65 0v-5.03h.03l.72 1.45 2.1 3.58h1.45v-6.98h-1.25v5.03h-.03l-.72-1.45-2.1-3.58h-1.45V142h1.25zm10.13.04v-1.3l-2.7-1.65v-.07l2.7-1.65v-1.3l-4.02 2.56v.85l4.02 2.56z" opacity=".4"/>
                    <path fill="#DEDEDE" fill-rule="nonzero" d="M16 1h218c8.837 0 16 7.163 16 16v77H0V17C0 8.163 7.163 1 16 1z"/>
                    <path fill="#2A3052" d="M0 14H250V46H0z"/>
                    <g fill-rule="nonzero">
                        <g>
                            <path fill="#000" d="M7.193 31.407v-2.122c0-.797-.464-1.326-1.257-1.332-.466-.03-.91.2-1.153.6-.22-.387-.637-.618-1.081-.6-.393-.023-.768.165-.983.494v-.41H2.06v3.37h.678v-1.915c-.03-.234.046-.468.205-.64.16-.173.387-.266.622-.255.471 0 .74.318.74.888v1.939h.677v-1.932c-.027-.233.05-.466.208-.638.16-.172.385-.266.62-.257.487 0 .745.318.745.888v1.939l.637-.017zm10.661-3.37h-1.19V27.02h-.678v1.017h-.678v.614h.678v1.593c0 .78.268 1.248 1.109 1.248.316 0 .626-.09.891-.261l-.206-.6c-.189.117-.405.183-.627.19-.34 0-.502-.224-.502-.563V28.65h1.19l.013-.614zm6.071-.084c-.359-.005-.693.184-.874.494v-.41h-.678v3.37h.678v-1.899c0-.555.257-.915.725-.915.153-.002.304.027.444.085l.22-.634c-.164-.061-.339-.092-.515-.091zm-9.176.339c-.402-.243-.867-.361-1.335-.34-.828 0-1.333.404-1.333 1.072 0 .549.37.881 1.102.986l.339.051c.393.054.603.197.603.386 0 .261-.288.431-.772.431-.392.018-.777-.102-1.089-.339l-.339.529c.414.292.91.445 1.417.437.946 0 1.465-.45 1.465-1.095 0-.59-.397-.895-1.115-1.017l-.34-.047c-.308-.044-.583-.143-.583-.366 0-.224.262-.417.651-.417.358.007.709.106 1.017.288l.312-.56zm9.922 1.416c-.032.47.137.931.465 1.269.328.337.784.52 1.254.501.429.02.85-.125 1.176-.403l-.339-.53c-.242.195-.543.303-.854.306-.583-.064-1.025-.556-1.025-1.143 0-.586.442-1.078 1.025-1.142.31.003.61.11.854.302l.34-.526c-.528-.434-1.258-.526-1.877-.237-.619.29-1.015.91-1.019 1.593v.01zm-4.596-1.769c-.96 0-1.617.712-1.617 1.763 0 1.05.678 1.776 1.664 1.776.496.02.98-.15 1.356-.475l-.339-.498c-.269.217-.604.337-.95.34-.518.027-.966-.359-1.016-.876h2.444v-.28c-.01-1.025-.627-1.736-1.542-1.736v-.014zm0 .627c.228-.005.449.084.611.245.162.16.252.38.25.61h-1.78c.024-.48.425-.853.905-.841l.014-.014zm-8.858 1.142v-1.694h-.671v.41c-.256-.317-.648-.492-1.054-.471-.916 0-1.614.739-1.614 1.769 0 1.03.698 1.77 1.614 1.77.413.017.808-.168 1.06-.495v.41h.658l.007-1.699zm-2.648 0c-.027-.288.067-.576.26-.792.193-.217.467-.344.757-.35.6 0 .997.488.997 1.142 0 .655-.397 1.143-.997 1.143-.29-.003-.565-.126-.76-.34-.196-.214-.294-.5-.27-.789l.013-.014zM33.82 27.94c-.364-.01-.704.18-.888.495v-.41h-.65v3.37h.657v-1.9c0-.555.261-.914.725-.914.153-.003.304.026.444.084l.22-.633c-.167-.058-.344-.084-.521-.078l.013-.014zm-2.515 1.77v-1.695h-.671v.41c-.253-.327-.648-.51-1.061-.495-.919 0-1.617.739-1.617 1.77 0 1.03.698 1.769 1.617 1.769.413.015.808-.169 1.06-.495v.41h.659l.013-1.675zm-2.65 0c-.028-.29.066-.577.259-.793.193-.217.467-.344.757-.35.604 0 1.017.488 1.017 1.142 0 .655-.396 1.143-1.017 1.143-.29-.003-.565-.126-.76-.34-.196-.214-.294-.5-.27-.789l.013-.014zm9.253 0v-3.051h-.657v1.762c-.253-.326-.648-.51-1.061-.495-.919 0-1.617.74-1.617 1.77s.698 1.77 1.617 1.77c.413.015.808-.17 1.06-.496v.41h.658v-1.67zm-2.65 0c-.028-.29.066-.577.26-.793.192-.217.467-.344.757-.35.603 0 1.017.488 1.017 1.142 0 .655-.397 1.143-1.017 1.143-.289-.006-.561-.13-.755-.344-.193-.214-.29-.498-.266-.785l.004-.014z" transform="translate(178 40) translate(12 16)"/>
                            <g>
                                <path fill="#FF5F00" d="M14.026 2.639H25.905V22.041H14.026z" transform="translate(178 40) translate(12 16)"/>
                                <path fill="#EB001B" d="M15.25 12.342c-.003-3.786 1.735-7.362 4.713-9.7-5.06-3.975-12.324-3.396-16.69 1.33-4.364 4.728-4.364 12.015 0 16.742 4.366 4.727 11.63 5.307 16.69 1.33-2.98-2.337-4.717-5.915-4.713-9.702z" transform="translate(178 40) translate(12 16)"/>
                                <path fill="#F79E1B" d="M39.927 12.342c0 4.724-2.697 9.033-6.946 11.098-4.25 2.064-9.304 1.521-13.018-1.399 2.976-2.339 4.714-5.915 4.714-9.7 0-3.787-1.738-7.363-4.714-9.702C23.677-.281 28.73-.824 32.98 1.24c4.249 2.064 6.946 6.373 6.946 11.097v.004z" transform="translate(178 40) translate(12 16)"/>
                            </g>
                        </g>
                    </g>
                    <rect width="114" height="32" x="16" y="54" fill="#FFF" rx="4"/>
                    <g transform="translate(138 58)">
                        <rect width="40" height="24" fill="#E98024" rx="4"/>
                        <path fill="#FFF" fill-rule="nonzero" d="M12.308 17.144c.776 0 1.418-.174 1.926-.522.508-.348.918-.842 1.23-1.482l-1.488-.864c-.128.344-.326.638-.594.882-.268.244-.626.366-1.074.366-.536 0-.966-.174-1.29-.522-.324-.348-.486-.854-.486-1.518V12.14c0-.664.162-1.17.486-1.518.324-.348.754-.522 1.29-.522.456 0 .802.106 1.038.318.236.212.41.494.522.846l1.572-.816c-.304-.68-.708-1.178-1.212-1.494-.504-.316-1.144-.474-1.92-.474-.568 0-1.08.096-1.536.288-.456.192-.844.474-1.164.846-.32.372-.568.832-.744 1.38-.176.548-.264 1.174-.264 1.878 0 .712.088 1.334.264 1.866.176.532.424.976.744 1.332.32.356.708.624 1.164.804.456.18.968.27 1.536.27zM20.72 17l2.724-8.376h-1.788l-1.248 4.02-.636 2.628h-.036l-.66-2.628-1.248-4.02H15.98L18.68 17h2.04zm7.8 0l2.724-8.376h-1.788l-1.248 4.02-.636 2.628h-.036l-.66-2.628-1.248-4.02H23.78L26.48 17h2.04z"/>
                    </g>
                </g>
            </g>
        </g>
    </g>
</svg>
